<svg width="512" height="512" viewBox="0 0 512 512" fill="none" xmlns="http://www.w3.org/2000/svg">
    <!-- Background: Soft Warm Orange -->
    <rect width="512" height="512" rx="128" fill="#FFCC80"/>
    
    <!-- The Pot Body -->
    <path d="M106 230H406V280C406 362.843 338.843 430 256 430C173.157 430 106 362.843 106 280V230Z" fill="#FF7043"/>
    
    <!-- The Pot Lid -->
    <path d="M106 230H406V210C406 182.386 383.614 160 356 160H156C128.386 160 106 182.386 106 210V230Z" fill="#F4511E"/>
    
    <!-- Pot Handle (Knob) -->
    <rect x="236" y="130" width="40" height="30" rx="5" fill="#8D6E63"/>
    
    <!-- Cute Face Eyes -->
    <circle cx="206" cy="330" r="15" fill="#3E2723"/>
    <circle cx="306" cy="330" r="15" fill="#3E2723"/>
    
    <!-- Cute Face Blush -->
    <circle cx="176" cy="345" r="12" fill="#FFAB91" fill-opacity="0.6"/>
    <circle cx="336" cy="345" r="12" fill="#FFAB91" fill-opacity="0.6"/>
    
    <!-- Cute Mouth -->
    <path d="M236 340C236 340 246 360 256 360C266 360 276 340 276 340" stroke="#3E2723" stroke-width="8" stroke-linecap="round"/>
    
    <!-- Steam / Aroma -->
    <path d="M206 100C206 100 196 80 216 60" stroke="white" stroke-width="12" stroke-linecap="round" stroke-opacity="0.8"/>
    <path d="M256 90C256 90 246 60 276 40" stroke="white" stroke-width="12" stroke-linecap="round" stroke-opacity="0.8"/>
    <path d="M306 100C306 100 296 80 316 60" stroke="white" stroke-width="12" stroke-linecap="round" stroke-opacity="0.8"/>
</svg>
